<mxfile host="Electron" modified="2023-06-04T18:22:16.828Z" agent="Mozilla/5.0 (Windows NT 10.0; Win64; x64) AppleWebKit/537.36 (KHTML, like Gecko) draw.io/21.2.8 Chrome/112.0.5615.165 Electron/24.2.0 Safari/537.36" etag="HaTOpkQvmSdZevGMynUd" version="21.2.8" type="device">
  <diagram name="ページ1" id="wuSQ-Uq39mKX_8tKRPu7">
    <mxGraphModel dx="810" dy="479" grid="1" gridSize="10" guides="1" tooltips="1" connect="1" arrows="1" fold="1" page="1" pageScale="1" pageWidth="827" pageHeight="1169" math="1" shadow="0">
      <root>
        <mxCell id="0" />
        <mxCell id="1" parent="0" />
        <mxCell id="yGWufWsu4QXsBUSSbbNs-1" value="" style="verticalLabelPosition=bottom;shadow=0;dashed=0;align=center;html=1;verticalAlign=top;shape=mxgraph.electrical.transistors.nmos;pointerEvents=1;" parent="1" vertex="1">
          <mxGeometry x="260" y="190" width="60" height="100" as="geometry" />
        </mxCell>
        <mxCell id="d4qtED9jThjjM8r5lUMW-1" style="edgeStyle=orthogonalEdgeStyle;rounded=0;orthogonalLoop=1;jettySize=auto;html=1;exitX=1;exitY=1;exitDx=0;exitDy=0;exitPerimeter=0;entryX=0.5;entryY=0;entryDx=0;entryDy=0;entryPerimeter=0;endArrow=none;endFill=0;" edge="1" parent="1" source="yGWufWsu4QXsBUSSbbNs-2" target="yGWufWsu4QXsBUSSbbNs-6">
          <mxGeometry relative="1" as="geometry" />
        </mxCell>
        <mxCell id="yGWufWsu4QXsBUSSbbNs-2" value="" style="verticalLabelPosition=bottom;shadow=0;dashed=0;align=center;html=1;verticalAlign=top;shape=mxgraph.electrical.transistors.nmos;pointerEvents=1;" parent="1" vertex="1">
          <mxGeometry x="260" y="270" width="60" height="100" as="geometry" />
        </mxCell>
        <mxCell id="yGWufWsu4QXsBUSSbbNs-12" style="edgeStyle=orthogonalEdgeStyle;shape=connector;rounded=0;orthogonalLoop=1;jettySize=auto;html=1;exitX=0.5;exitY=0;exitDx=0;exitDy=0;exitPerimeter=0;entryX=0;entryY=0.5;entryDx=0;entryDy=0;entryPerimeter=0;labelBackgroundColor=default;strokeColor=default;fontFamily=Helvetica;fontSize=11;fontColor=default;endArrow=none;endFill=0;" parent="1" source="yGWufWsu4QXsBUSSbbNs-3" target="yGWufWsu4QXsBUSSbbNs-1" edge="1">
          <mxGeometry relative="1" as="geometry" />
        </mxCell>
        <mxCell id="yGWufWsu4QXsBUSSbbNs-3" value="" style="pointerEvents=1;verticalLabelPosition=bottom;shadow=0;dashed=0;align=center;html=1;verticalAlign=top;shape=mxgraph.electrical.signal_sources.source;aspect=fixed;points=[[0.5,0,0],[1,0.5,0],[0.5,1,0],[0,0.5,0]];elSignalType=ac;" parent="1" vertex="1">
          <mxGeometry x="130" y="280" width="60" height="60" as="geometry" />
        </mxCell>
        <mxCell id="yGWufWsu4QXsBUSSbbNs-11" style="edgeStyle=orthogonalEdgeStyle;shape=connector;rounded=0;orthogonalLoop=1;jettySize=auto;html=1;exitX=1;exitY=0.5;exitDx=0;exitDy=0;exitPerimeter=0;entryX=0.5;entryY=1;entryDx=0;entryDy=0;entryPerimeter=0;labelBackgroundColor=default;strokeColor=default;fontFamily=Helvetica;fontSize=11;fontColor=default;endArrow=none;endFill=0;" parent="1" source="yGWufWsu4QXsBUSSbbNs-4" target="yGWufWsu4QXsBUSSbbNs-3" edge="1">
          <mxGeometry relative="1" as="geometry" />
        </mxCell>
        <mxCell id="yGWufWsu4QXsBUSSbbNs-4" value="" style="verticalLabelPosition=bottom;shadow=0;dashed=0;align=center;fillColor=strokeColor;html=1;verticalAlign=top;strokeWidth=1;shape=mxgraph.electrical.miscellaneous.monocell_battery;direction=north;" parent="1" vertex="1">
          <mxGeometry x="130" y="350" width="60" height="100" as="geometry" />
        </mxCell>
        <mxCell id="yGWufWsu4QXsBUSSbbNs-5" value="" style="endArrow=none;html=1;rounded=0;" parent="1" edge="1">
          <mxGeometry width="50" height="50" relative="1" as="geometry">
            <mxPoint x="280" y="192" as="sourcePoint" />
            <mxPoint x="360" y="192" as="targetPoint" />
          </mxGeometry>
        </mxCell>
        <mxCell id="yGWufWsu4QXsBUSSbbNs-6" value="" style="pointerEvents=1;verticalLabelPosition=bottom;shadow=0;dashed=0;align=center;html=1;verticalAlign=top;shape=mxgraph.electrical.signal_sources.signal_ground;" parent="1" vertex="1">
          <mxGeometry x="297" y="450" width="45" height="30" as="geometry" />
        </mxCell>
        <mxCell id="yGWufWsu4QXsBUSSbbNs-7" value="" style="pointerEvents=1;verticalLabelPosition=bottom;shadow=0;dashed=0;align=center;html=1;verticalAlign=top;shape=mxgraph.electrical.signal_sources.signal_ground;" parent="1" vertex="1">
          <mxGeometry x="217.5" y="450" width="45" height="30" as="geometry" />
        </mxCell>
        <mxCell id="yGWufWsu4QXsBUSSbbNs-8" value="" style="pointerEvents=1;verticalLabelPosition=bottom;shadow=0;dashed=0;align=center;html=1;verticalAlign=top;shape=mxgraph.electrical.signal_sources.signal_ground;" parent="1" vertex="1">
          <mxGeometry x="137.5" y="450" width="45" height="30" as="geometry" />
        </mxCell>
        <mxCell id="yGWufWsu4QXsBUSSbbNs-10" style="edgeStyle=orthogonalEdgeStyle;rounded=0;orthogonalLoop=1;jettySize=auto;html=1;exitX=1;exitY=0.5;exitDx=0;exitDy=0;exitPerimeter=0;entryX=0;entryY=0.5;entryDx=0;entryDy=0;entryPerimeter=0;endArrow=none;endFill=0;" parent="1" source="yGWufWsu4QXsBUSSbbNs-9" target="yGWufWsu4QXsBUSSbbNs-2" edge="1">
          <mxGeometry relative="1" as="geometry">
            <Array as="points">
              <mxPoint x="240" y="320" />
            </Array>
          </mxGeometry>
        </mxCell>
        <mxCell id="yGWufWsu4QXsBUSSbbNs-9" value="" style="verticalLabelPosition=bottom;shadow=0;dashed=0;align=center;fillColor=strokeColor;html=1;verticalAlign=top;strokeWidth=1;shape=mxgraph.electrical.miscellaneous.monocell_battery;direction=north;" parent="1" vertex="1">
          <mxGeometry x="210" y="350" width="60" height="100" as="geometry" />
        </mxCell>
        <mxCell id="yGWufWsu4QXsBUSSbbNs-14" value="" style="endArrow=none;html=1;rounded=0;labelBackgroundColor=default;strokeColor=default;fontFamily=Helvetica;fontSize=11;fontColor=default;shape=connector;" parent="1" source="yGWufWsu4QXsBUSSbbNs-13" edge="1">
          <mxGeometry width="50" height="50" relative="1" as="geometry">
            <mxPoint x="320" y="280" as="sourcePoint" />
            <mxPoint x="360" y="280" as="targetPoint" />
          </mxGeometry>
        </mxCell>
        <mxCell id="yGWufWsu4QXsBUSSbbNs-15" value="" style="endArrow=none;html=1;rounded=0;labelBackgroundColor=default;strokeColor=default;fontFamily=Helvetica;fontSize=11;fontColor=default;shape=connector;" parent="1" target="yGWufWsu4QXsBUSSbbNs-13" edge="1">
          <mxGeometry width="50" height="50" relative="1" as="geometry">
            <mxPoint x="320" y="280" as="sourcePoint" />
            <mxPoint x="360" y="280" as="targetPoint" />
          </mxGeometry>
        </mxCell>
        <mxCell id="yGWufWsu4QXsBUSSbbNs-13" value="" style="verticalLabelPosition=bottom;shadow=0;dashed=0;align=center;html=1;verticalAlign=top;strokeWidth=1;shape=ellipse;perimeter=ellipsePerimeter;fontFamily=Helvetica;fontSize=11;fontColor=default;" parent="1" vertex="1">
          <mxGeometry x="359" y="272" width="15" height="15" as="geometry" />
        </mxCell>
        <mxCell id="yGWufWsu4QXsBUSSbbNs-16" value="&lt;font style=&quot;font-size: 24px;&quot;&gt;VDD&lt;/font&gt;" style="text;html=1;align=center;verticalAlign=middle;resizable=0;points=[];autosize=1;strokeColor=none;fillColor=none;fontSize=11;fontFamily=Helvetica;fontColor=default;" parent="1" vertex="1">
          <mxGeometry x="285" y="150" width="70" height="40" as="geometry" />
        </mxCell>
        <mxCell id="yGWufWsu4QXsBUSSbbNs-18" value="&lt;font style=&quot;font-size: 24px;&quot;&gt;`v_{out}`&lt;/font&gt;" style="text;html=1;align=center;verticalAlign=middle;resizable=0;points=[];autosize=1;strokeColor=none;fillColor=none;fontSize=11;fontFamily=Helvetica;fontColor=default;" parent="1" vertex="1">
          <mxGeometry x="340" y="280" width="110" height="40" as="geometry" />
        </mxCell>
        <mxCell id="yGWufWsu4QXsBUSSbbNs-19" value="&lt;font style=&quot;font-size: 24px;&quot;&gt;`v_{㏌}`&lt;/font&gt;" style="text;html=1;align=center;verticalAlign=middle;resizable=0;points=[];autosize=1;strokeColor=none;fillColor=none;fontSize=11;fontFamily=Helvetica;fontColor=default;" parent="1" vertex="1">
          <mxGeometry x="70" y="247" width="100" height="40" as="geometry" />
        </mxCell>
        <mxCell id="yGWufWsu4QXsBUSSbbNs-20" value="&lt;span style=&quot;font-size: 24px;&quot;&gt;Vbias1&lt;/span&gt;" style="text;html=1;align=center;verticalAlign=middle;resizable=0;points=[];autosize=1;strokeColor=none;fillColor=none;fontSize=11;fontFamily=Helvetica;fontColor=default;" parent="1" vertex="1">
          <mxGeometry x="150" y="410" width="100" height="40" as="geometry" />
        </mxCell>
        <mxCell id="yGWufWsu4QXsBUSSbbNs-21" value="&lt;span style=&quot;font-size: 24px;&quot;&gt;Vbias2&lt;/span&gt;" style="text;html=1;align=center;verticalAlign=middle;resizable=0;points=[];autosize=1;strokeColor=none;fillColor=none;fontSize=11;fontFamily=Helvetica;fontColor=default;" parent="1" vertex="1">
          <mxGeometry x="60" y="410" width="100" height="40" as="geometry" />
        </mxCell>
        <mxCell id="yGWufWsu4QXsBUSSbbNs-22" value="&lt;span style=&quot;font-size: 24px;&quot;&gt;M1&lt;/span&gt;" style="text;html=1;align=center;verticalAlign=middle;resizable=0;points=[];autosize=1;strokeColor=none;fillColor=none;fontSize=11;fontFamily=Helvetica;fontColor=default;" parent="1" vertex="1">
          <mxGeometry x="314" y="220" width="60" height="40" as="geometry" />
        </mxCell>
        <mxCell id="yGWufWsu4QXsBUSSbbNs-23" value="&lt;span style=&quot;font-size: 24px;&quot;&gt;M2&lt;/span&gt;" style="text;html=1;align=center;verticalAlign=middle;resizable=0;points=[];autosize=1;strokeColor=none;fillColor=none;fontSize=11;fontFamily=Helvetica;fontColor=default;" parent="1" vertex="1">
          <mxGeometry x="320" y="310" width="60" height="40" as="geometry" />
        </mxCell>
      </root>
    </mxGraphModel>
  </diagram>
</mxfile>
